<?xml version="1.0" encoding="UTF-8" standalone="no"?>
<svg width="170px" height="34px" viewBox="0 0 170 34" version="1.1" xmlns="http://www.w3.org/2000/svg" xmlns:xlink="http://www.w3.org/1999/xlink">
    <!-- Generator: Sketch 41.2 (35397) - http://www.bohemiancoding.com/sketch -->
    <title>521 Dimensions logo horizontal FULL COLOR rgb</title>
    <desc>Created with Sketch.</desc>
    <defs>
        <linearGradient x1="2.35099338%" y1="47.2690101%" x2="107.758128%" y2="53.3456858%" id="linearGradient-1">
            <stop stop-color="#FFFFFF" stop-opacity="0" offset="0%"></stop>
            <stop stop-color="#003DA6" offset="100%"></stop>
        </linearGradient>
        <linearGradient x1="83.2006543%" y1="27.2951036%" x2="8.10052543%" y2="77.4227336%" id="linearGradient-2">
            <stop stop-color="#FFFFFF" stop-opacity="0" offset="11.08%"></stop>
            <stop stop-color="#003DA6" offset="100%"></stop>
        </linearGradient>
        <linearGradient x1="61.0999882%" y1="51.9602536%" x2="26.3164928%" y2="128.726791%" id="linearGradient-3">
            <stop stop-color="#FFFFFF" stop-opacity="0" offset="0%"></stop>
            <stop stop-color="#003DA6" offset="100%"></stop>
        </linearGradient>
        <linearGradient x1="76.701074%" y1="12.1574139%" x2="21.8392362%" y2="88.1650972%" id="linearGradient-4">
            <stop stop-color="#FFFFFF" stop-opacity="0" offset="0%"></stop>
            <stop stop-color="#003DA6" offset="100%"></stop>
        </linearGradient>
        <linearGradient x1="112.435521%" y1="25.6765826%" x2="-52.4431385%" y2="87.9400206%" id="linearGradient-5">
            <stop stop-color="#FFFFFF" stop-opacity="0" offset="10.94%"></stop>
            <stop stop-color="#003DA6" offset="100%"></stop>
        </linearGradient>
        <linearGradient x1="15.0701491%" y1="47.4146645%" x2="102.796881%" y2="53.9126102%" id="linearGradient-6">
            <stop stop-color="#FFFFFF" stop-opacity="0" offset="0%"></stop>
            <stop stop-color="#003DA6" offset="100%"></stop>
        </linearGradient>
    </defs>
    <g id="01.00.00-Homepage" stroke="none" stroke-width="1" fill="none" fill-rule="evenodd">
        <g id="HD" transform="translate(-731.000000, -974.000000)">
            <g id="Group-3" transform="translate(538.000000, 974.000000)">
                <g id="521-Dimensions-logo-horizontal-FULL-COLOR-rgb" transform="translate(193.000000, 0.000000)">
                    <g id="Layer_1">
                        <g id="Group">
                            <g transform="translate(0.000000, 10.893875)" id="Shape" fill="#003DA6">
                                <path d="M3.76774869,12.008839 C1.75947644,12.008839 0.580052356,10.8067236 0,8.95476496 L2.17554974,8.25234687 C2.42387435,9.03812678 2.85455497,9.73865028 3.76774869,9.73865028 C4.89722513,9.73865028 5.41225131,8.80461895 5.41225131,7.81943376 C5.41225131,6.8669302 4.86471204,6.01626068 3.76774869,6.01626068 C3.08874346,6.01626068 2.73910995,6.23366453 2.29099476,6.73478276 L0.315235602,6.73478276 L0.315235602,0.308344017 L6.92340314,0.308344017 L6.92340314,2.56242877 L2.45685864,2.56242877 L2.45685864,4.24813746 C2.87293194,3.96394943 3.40445026,3.86448362 3.88507853,3.86448362 C6.32544503,3.86448362 7.72162304,5.53361467 7.72162304,7.82038105 C7.72115183,10.2890278 6.35984293,12.008839 3.76774869,12.008839 Z"></path>
                                <path d="M17.1556021,11.9581588 L9.81753927,11.9581588 L9.81753927,10.47375 C9.81753927,6.46717236 14.6478534,5.19827279 14.6478534,3.63050214 C14.6478534,2.8627208 13.9509424,2.44449074 13.2700524,2.44449074 C12.4741885,2.44449074 11.9082723,3.19569444 11.6095288,3.82943376 L9.61774869,2.64531695 C10.4136126,1.09365028 11.4441361,0.157724359 13.2540314,0.157724359 C15.3631414,0.157724359 17.0057592,1.41051994 17.0057592,3.63002849 C17.0057592,6.73478276 13.0702618,7.30173789 12.4902094,9.70407407 L17.1551309,9.70407407 L17.1551309,11.9581588 L17.1556021,11.9581588 Z"></path>
                                <polygon points="23.7581152 11.9581588 21.4831414 11.9581588 21.4831414 3.29516026 20.0205236 4.11362179 18.9579581 2.3123433 22.0631937 0.308344017 23.7581152 0.308344017"></polygon>
                            </g>
                            <g transform="translate(69.267016, 10.893875)" id="Shape" fill="#00A0FF">
                                <path d="M3.68528796,11.84401 L0.44104712,11.84401 L0.44104712,0.288924501 L3.68528796,0.288924501 C8.13157068,0.288924501 9.1691623,1.69660256 9.1691623,6.06741453 C9.16963351,10.4358583 8.13157068,11.84401 3.68528796,11.84401 Z M6.48659686,3.35247151 C6.14026178,2.78883191 5.46502618,2.6235292 4.21256545,2.6235292 L2.79753927,2.6235292 L2.79753927,9.50987892 L4.21256545,9.50987892 C5.48104712,9.50987892 6.15628272,9.32847222 6.5026178,8.732151 C6.73303665,8.33523504 6.81502618,7.78769943 6.81502618,6.08351852 C6.81502618,4.42812322 6.73303665,3.76549145 6.48659686,3.35247151 Z"></path>
                                <polygon points="14.2336649 11.84401 11.877644 11.84401 11.877644 0.288924501 14.2336649 0.288924501"></polygon>
                                <polygon points="27.7459162 11.84401 25.375288 11.84401 25.375288 6.41412393 23.1672251 11.84401 21.7022513 11.84401 19.5120942 6.41412393 19.5120942 11.84401 17.1395812 11.84401 17.1395812 0.288924501 19.3796859 0.288924501 22.4255497 8.00273504 25.539267 0.288924501 27.745445 0.288924501 27.745445 11.84401"></polygon>
                                <polygon points="38.5675916 11.84401 30.6791623 11.84401 30.6791623 0.288924501 38.5675916 0.288924501 38.5675916 2.62305556 33.0351832 2.62305556 33.0351832 4.79235755 37.8603141 4.79235755 37.8603141 7.0260755 33.0351832 7.0260755 33.0351832 9.50940527 38.5675916 9.50940527"></polygon>
                                <polygon points="49.7450262 11.84401 47.8498429 11.84401 43.6518848 5.25605769 43.6518848 11.84401 41.2958639 11.84401 41.2958639 0.288924501 43.2070681 0.288924501 47.3890052 6.87687678 47.3890052 0.288924501 49.7450262 0.288924501"></polygon>
                                <path d="M56.7867016,12.008839 C54.3501047,12.008839 52.735288,10.8507728 52.1420419,8.5000641 L54.3661257,8.0529416 C54.6950262,9.2451104 55.5521466,9.75712251 56.7867016,9.75712251 C57.6424084,9.75712251 58.7464398,9.31189459 58.7464398,8.30065883 C58.7464398,6.2161396 52.5048691,7.65602564 52.5048691,3.48461895 C52.5048691,1.24900641 54.498534,0.157250712 56.4742932,0.157250712 C58.5659686,0.157250712 59.8664921,0.951082621 60.7721466,2.80588319 L58.7464398,3.74844017 C58.2196335,2.78788462 57.6263874,2.35876068 56.4742932,2.35876068 C55.8310995,2.35876068 54.8594764,2.65668447 54.8594764,3.48461895 C54.8594764,5.23900641 61.1010471,4.07904558 61.1010471,8.30065883 C61.1005759,10.6854701 58.9608377,12.008839 56.7867016,12.008839 Z"></path>
                                <polygon points="65.884712 11.84401 63.5286911 11.84401 63.5286911 0.288924501 65.884712 0.288924501"></polygon>
                                <path d="M73.2246597,11.9766311 C69.7485864,11.9766311 68.4160209,9.14517094 68.4160209,6.06741453 C68.4160209,2.98776353 69.7485864,0.158198006 73.2246597,0.158198006 C76.6993194,0.158198006 78.0332984,2.98823718 78.0332984,6.06741453 C78.0332984,9.14517094 76.6993194,11.9766311 73.2246597,11.9766311 Z M73.2246597,2.49043447 C71.1490052,2.49043447 70.786178,4.3954416 70.786178,6.06741453 C70.786178,7.73891382 71.1490052,9.6425 73.2246597,9.6425 C75.2984293,9.6425 75.6612565,7.73891382 75.6612565,6.06741453 C75.6612565,4.3954416 75.3144503,2.49043447 73.2246597,2.49043447 Z"></path>
                                <polygon points="89.0104712 11.84401 87.115288 11.84401 82.9173298 5.25605769 82.9173298 11.84401 80.5613089 11.84401 80.5613089 0.288924501 82.4725131 0.288924501 86.6544503 6.87687678 86.6544503 0.288924501 89.0104712 0.288924501"></polygon>
                                <path d="M96.0526178,12.008839 C93.6160209,12.008839 92.0012042,10.8507728 91.4079581,8.5000641 L93.6320419,8.0529416 C93.9609424,9.2451104 94.8180628,9.75712251 96.0526178,9.75712251 C96.9083246,9.75712251 98.012356,9.31189459 98.012356,8.30065883 C98.012356,6.2161396 91.7707853,7.65602564 91.7707853,3.48461895 C91.7707853,1.24900641 93.7644503,0.157250712 95.7402094,0.157250712 C97.8318848,0.157250712 99.1324084,0.951082621 100.038063,2.80588319 L98.012356,3.74844017 C97.4855497,2.78788462 96.8923037,2.35876068 95.7402094,2.35876068 C95.0970157,2.35876068 94.1253927,2.65668447 94.1253927,3.48461895 C94.1253927,5.23900641 100.366963,4.07904558 100.366963,8.30065883 C100.366492,10.6854701 98.2262827,12.008839 96.0526178,12.008839 Z"></path>
                            </g>
                            <g transform="translate(31.099476, 0.000000)" id="Shape">
                                <g transform="translate(18.376963, 11.367521)">
                                    <path d="M12.1057068,0.200826211 L9.46696335,1.97084402 C9.31382199,2.07362536 9.22193717,2.24603276 9.22193717,2.43122863 L9.22193717,4.34523504 C9.22193717,4.55127137 9.11921466,4.74404558 8.94816754,4.8577208 L0.306753927,10.6044765 C0.170575916,10.694943 0.0885863874,10.8484046 0.0885863874,11.01276 L0.0885863874,14.0431517 C0.0885863874,14.2416097 0.308638743,14.360495 0.473089005,14.250609 L12.2904188,6.36865385 C12.4906806,6.23508547 12.6113089,6.00962963 12.6113089,5.76759615 L12.6113089,0.47269943 C12.6113089,0.211720085 12.3219895,0.0563639601 12.1057068,0.200826211 Z" fill="#00A0FF"></path>
                                    <path d="M12.1057068,0.200826211 L9.46696335,1.97084402 C9.31382199,2.07362536 9.22193717,2.24603276 9.22193717,2.43122863 L9.22193717,4.34523504 C9.22193717,4.55127137 9.11921466,4.74404558 8.94816754,4.8577208 L0.306753927,10.6044765 C0.170575916,10.694943 0.0885863874,10.8484046 0.0885863874,11.01276 L0.0885863874,14.0431517 C0.0885863874,14.2416097 0.308638743,14.360495 0.473089005,14.250609 L12.2904188,6.36865385 C12.4906806,6.23508547 12.6113089,6.00962963 12.6113089,5.76759615 L12.6113089,0.47269943 C12.6113089,0.211720085 12.3219895,0.0563639601 12.1057068,0.200826211 Z" fill="url(#linearGradient-1)"></path>
                                </g>
                                <g transform="translate(0.000000, 9.946581)">
                                    <path d="M0.263403141,0.916980057 L0.263403141,6.84182692 C0.263403141,7.18664174 0.434921466,7.50872151 0.72,7.70007479 L6.11905759,11.3239459 C6.26183246,11.4196225 6.34759162,11.581136 6.34759162,11.7535434 L6.34759162,14.0109437 C6.34759162,14.1350392 6.2104712,14.2089281 6.10774869,14.1402493 L0.808115183,10.6049501 C0.57486911,10.449594 0.263403141,10.6177386 0.263403141,10.8990848 L0.263403141,13.4084651 C0.263403141,13.6869694 0.400052356,13.9479487 0.629057592,14.1051994 L8.83225131,19.7501211 C9.22994764,20.0234152 9.76947644,19.7373326 9.76947644,19.2532657 L9.76947644,10.3368661 C9.76947644,9.94894943 9.57486911,9.58708333 9.25209424,9.3748896 L4.15319372,6.0143661 C3.91570681,5.85806268 3.77293194,5.59187322 3.77293194,5.30673789 L3.77293194,3.09622863 C3.77293194,2.95081909 3.81062827,2.81061966 3.87848168,2.68699786 L0.402408377,0.395968661 C0.31382199,0.552745726 0.263403141,0.731310541 0.263403141,0.916980057 Z" fill="#00A0FF"></path>
                                    <path d="M0.263403141,0.916980057 L0.263403141,6.84182692 C0.263403141,7.18664174 0.434921466,7.50872151 0.72,7.70007479 L6.11905759,11.3239459 C6.26183246,11.4196225 6.34759162,11.581136 6.34759162,11.7535434 L6.34759162,14.0109437 C6.34759162,14.1350392 6.2104712,14.2089281 6.10774869,14.1402493 L0.808115183,10.6049501 C0.57486911,10.449594 0.263403141,10.6177386 0.263403141,10.8990848 L0.263403141,13.4084651 C0.263403141,13.6869694 0.400052356,13.9479487 0.629057592,14.1051994 L8.83225131,19.7501211 C9.22994764,20.0234152 9.76947644,19.7373326 9.76947644,19.2532657 L9.76947644,10.3368661 C9.76947644,9.94894943 9.57486911,9.58708333 9.25209424,9.3748896 L4.15319372,6.0143661 C3.91570681,5.85806268 3.77293194,5.59187322 3.77293194,5.30673789 L3.77293194,3.09622863 C3.77293194,2.95081909 3.81062827,2.81061966 3.87848168,2.68699786 L0.402408377,0.395968661 C0.31382199,0.552745726 0.263403141,0.731310541 0.263403141,0.916980057 Z" fill="url(#linearGradient-2)"></path>
                                </g>
                                <g>
                                    <path d="M28.8918848,8.64026353 L16.4657592,0.318290598 C16.0741885,0.0558903134 15.5643455,0.0558903134 15.1727749,0.318290598 L0.727539267,9.99252493 C0.591361257,10.0834651 0.482041885,10.2047187 0.402879581,10.3430235 L3.87895288,12.6340527 C3.94303665,12.517062 4.03445026,12.4152279 4.14848168,12.3389708 L15.3584293,4.83167023 C15.6411518,4.64221154 16.0091623,4.64221154 16.2918848,4.83167023 L25.5425654,11.0269694 C25.7494241,11.1657479 26.0189529,11.1652742 26.2258115,11.0269694 L28.892356,9.23895299 C29.1043979,9.09638533 29.1043979,8.78235755 28.8918848,8.64026353 Z" fill="#00A0FF"></path>
                                    <path d="M28.8918848,8.64026353 L16.4657592,0.318290598 C16.0741885,0.0558903134 15.5643455,0.0558903134 15.1727749,0.318290598 L0.727539267,9.99252493 C0.591361257,10.0834651 0.482041885,10.2047187 0.402879581,10.3430235 L3.87895288,12.6340527 C3.94303665,12.517062 4.03445026,12.4152279 4.14848168,12.3389708 L15.3584293,4.83167023 C15.6411518,4.64221154 16.0091623,4.64221154 16.2918848,4.83167023 L25.5425654,11.0269694 C25.7494241,11.1657479 26.0189529,11.1652742 26.2258115,11.0269694 L28.892356,9.23895299 C29.1043979,9.09638533 29.1043979,8.78235755 28.8918848,8.64026353 Z" fill="url(#linearGradient-3)"></path>
                                </g>
                                <g transform="translate(6.596859, 7.578348)">
                                    <path d="M9.8321466,12.6970477 L18.1097906,7.15253917 C18.4325654,6.93608262 18.4330366,6.45912037 18.1097906,6.24266382 L9.6752356,0.589690171 C9.4047644,0.408283476 9.05183246,0.408283476 8.78136126,0.589690171 L0.392041885,6.21282407 C0.119685864,6.39517806 0.120628272,6.79777778 0.393926702,6.97918447 L3.00298429,8.70752137 C3.21455497,8.8477208 3.48926702,8.84629986 3.69942408,8.70373219 L9.05890052,5.07323006 C9.2360733,4.95292379 9.46837696,4.95245014 9.64649215,5.07180912 L11.6034031,6.38381054 C11.7697382,6.49511752 11.7697382,6.74094017 11.6029319,6.85224715 L6.2886911,10.3122365 C6.12518325,10.4216489 5.99371728,10.5680057 5.90041885,10.735203 L9.47544503,13.0911218 C9.55884817,12.9348184 9.68041885,12.7984081 9.8321466,12.6970477 Z" fill="#00A0FF"></path>
                                    <path d="M9.8321466,12.6970477 L18.1097906,7.15253917 C18.4325654,6.93608262 18.4330366,6.45912037 18.1097906,6.24266382 L9.6752356,0.589690171 C9.4047644,0.408283476 9.05183246,0.408283476 8.78136126,0.589690171 L0.392041885,6.21282407 C0.119685864,6.39517806 0.120628272,6.79777778 0.393926702,6.97918447 L3.00298429,8.70752137 C3.21455497,8.8477208 3.48926702,8.84629986 3.69942408,8.70373219 L9.05890052,5.07323006 C9.2360733,4.95292379 9.46837696,4.95245014 9.64649215,5.07180912 L11.6034031,6.38381054 C11.7697382,6.49511752 11.7697382,6.74094017 11.6029319,6.85224715 L6.2886911,10.3122365 C6.12518325,10.4216489 5.99371728,10.5680057 5.90041885,10.735203 L9.47544503,13.0911218 C9.55884817,12.9348184 9.68041885,12.7984081 9.8321466,12.6970477 Z" fill="url(#linearGradient-4)"></path>
                                </g>
                                <g transform="translate(12.251309, 17.998575)">
                                    <path d="M3.6904712,15.25474 L3.6904712,3.19095798 C3.6904712,3.0067094 3.73664921,2.82861823 3.82052356,2.67089387 L0.245497382,0.314975071 C0.14513089,0.495434473 0.0895287958,0.700049858 0.0895287958,0.912717236 L0.0895287958,13.3937821 C0.0895287958,13.734334 0.258691099,14.052151 0.540942408,14.241136 L2.8913089,15.8131695 C3.22774869,16.0386254 3.66643979,16.0386254 4.00287958,15.8131695 L4.41942408,15.5341916 C4.00287958,15.8136432 3.6904712,15.7335969 3.6904712,15.25474 Z" fill="#00A0FF"></path>
                                    <path d="M3.6904712,15.25474 L3.6904712,3.19095798 C3.6904712,3.0067094 3.73664921,2.82861823 3.82052356,2.67089387 L0.245497382,0.314975071 C0.14513089,0.495434473 0.0895287958,0.700049858 0.0895287958,0.912717236 L0.0895287958,13.3937821 C0.0895287958,13.734334 0.258691099,14.052151 0.540942408,14.241136 L2.8913089,15.8131695 C3.22774869,16.0386254 3.66643979,16.0386254 4.00287958,15.8131695 L4.41942408,15.5341916 C4.00287958,15.8136432 3.6904712,15.7335969 3.6904712,15.25474 Z" fill="url(#linearGradient-5)"></path>
                                </g>
                                <g transform="translate(15.549738, 20.366809)">
                                    <path d="M14.9513089,0.149198718 L0.866073298,9.44735755 C0.662984293,9.58139957 0.392513089,9.43504274 0.392513089,9.19064103 L0.392513089,12.8865064 C0.392513089,13.3653632 0.704921466,13.4454095 1.12146597,13.1664316 L15.0648691,3.82280271 C15.2985864,3.66602564 15.4390052,3.40267806 15.4390052,3.12038462 L15.4390052,0.413967236 C15.438534,0.161987179 15.1605236,0.0113675214 14.9513089,0.149198718 Z" fill="#00A0FF"></path>
                                    <path d="M14.9513089,0.149198718 L0.866073298,9.44735755 C0.662984293,9.58139957 0.392513089,9.43504274 0.392513089,9.19064103 L0.392513089,12.8865064 C0.392513089,13.3653632 0.704921466,13.4454095 1.12146597,13.1664316 L15.0648691,3.82280271 C15.2985864,3.66602564 15.4390052,3.40267806 15.4390052,3.12038462 L15.4390052,0.413967236 C15.438534,0.161987179 15.1605236,0.0113675214 14.9513089,0.149198718 Z" fill="url(#linearGradient-6)"></path>
                                </g>
                            </g>
                        </g>
                    </g>
                </g>
            </g>
        </g>
    </g>
</svg>