<?xml version="1.0" encoding="UTF-8" standalone="no"?>
<svg width="32px" height="32px" viewBox="0 0 32 32" version="1.1" xmlns="http://www.w3.org/2000/svg" xmlns:xlink="http://www.w3.org/1999/xlink">
    <!-- Generator: Sketch 41.2 (35397) - http://www.bohemiancoding.com/sketch -->
    <title>Shape</title>
    <desc>Created with Sketch.</desc>
    <defs></defs>
    <g id="02.00.00-AddressDetail" stroke="none" stroke-width="1" fill="none" fill-rule="evenodd">
        <g id="HD" transform="translate(-1278.000000, -22.000000)" fill="#666666">
            <g id="Header">
                <g id="Group-7" transform="translate(1107.000000, 22.000000)">
                    <path d="M200.332,16 C200.332,12.396 198.811,8.939 196.436,6.562 C194.061,4.181 190.603,2.666 186.998,2.666 C183.394,2.666 179.956,4.187 177.581,6.562 C175.206,8.937 173.665,12.396 173.665,16 C173.665,21.812 177.477,26.979 182.998,28.709 L182.998,25.188 C182.248,25.292 181.769,25.334 181.56,25.334 C180.039,25.334 178.977,24.646 178.372,23.25 C178.164,22.729 177.914,22.295 177.622,21.939 C177.56,21.857 177.414,21.732 177.184,21.543 C176.954,21.355 176.767,21.189 176.601,21.043 C176.413,20.897 176.33,20.772 176.33,20.709 C176.33,20.543 176.518,20.459 176.914,20.459 C177.726,20.459 178.352,20.918 178.789,21.48 C179.205,22.057 179.601,22.682 180.289,23.084 C180.622,23.293 181.018,23.396 181.455,23.396 C182.039,23.396 182.601,23.292 183.143,23.098 C183.372,22.307 183.81,21.682 184.455,21.244 C179.851,20.806 177.664,19.182 177.664,14.828 C177.664,13.182 178.164,11.807 179.185,10.703 C178.997,10.119 178.893,9.535 178.893,8.953 C178.893,8.141 179.081,7.391 179.455,6.682 C181.039,6.682 182.08,7.203 183.664,8.355 C184.726,8.105 185.893,7.98 187.185,7.98 C188.289,7.98 189.352,8.084 190.373,8.307 C191.956,7.203 192.977,6.682 194.54,6.682 C194.915,7.391 195.102,8.141 195.102,8.953 C195.102,9.557 194.998,10.119 194.81,10.682 C195.831,11.828 196.331,13.203 196.331,14.828 C196.331,19.182 194.143,20.849 189.56,21.266 C190.518,21.912 190.998,22.828 190.998,23.995 L190.998,28.704 C196.52,26.985 200.332,21.816 200.332,16 Z M200.854,7.959 C202.292,10.418 203,13.105 203,16 C203,21.812 199.938,27 195.042,29.854 C192.583,31.292 189.896,32 187,32 C181.188,32 176,28.939 173.146,24.021 C171.708,21.583 171,18.896 171,16 C171,10.189 174.062,5 178.979,2.146 C181.417,0.708 184.104,0 187,0 C192.812,0 197.999,3.066 200.854,7.959 Z" id="Shape"></path>
                </g>
            </g>
        </g>
    </g>
</svg>