<?xml version="1.0" encoding="UTF-8" standalone="no"?>
<svg width="32px" height="32px" viewBox="0 0 32 32" version="1.1" xmlns="http://www.w3.org/2000/svg" xmlns:xlink="http://www.w3.org/1999/xlink">
    <!-- Generator: Sketch 41.2 (35397) - http://www.bohemiancoding.com/sketch -->
    <title>Shape</title>
    <desc>Created with Sketch.</desc>
    <defs></defs>
    <g id="01.00.00-Homepage" stroke="none" stroke-width="1" fill="none" fill-rule="evenodd">
        <g id="HD" transform="translate(-1120.000000, -14.000000)" fill="#666666">
            <g id="Header">
                <g id="Contribute-on-Github" transform="translate(1120.000000, 14.000000)">
                    <path d="M29.332,16 C29.332,12.396 27.811,8.939 25.436,6.562 C23.061,4.181 19.603,2.666 15.998,2.666 C12.394,2.666 8.956,4.187 6.581,6.562 C4.206,8.937 2.665,12.396 2.665,16 C2.665,21.812 6.477,26.979 11.998,28.709 L11.998,25.188 C11.248,25.292 10.769,25.334 10.56,25.334 C9.039,25.334 7.977,24.646 7.372,23.25 C7.164,22.729 6.914,22.295 6.622,21.939 C6.56,21.857 6.414,21.732 6.184,21.543 C5.954,21.355 5.767,21.189 5.601,21.043 C5.413,20.897 5.33,20.772 5.33,20.709 C5.33,20.543 5.518,20.459 5.914,20.459 C6.726,20.459 7.352,20.918 7.789,21.48 C8.205,22.057 8.601,22.682 9.289,23.084 C9.622,23.293 10.018,23.396 10.455,23.396 C11.039,23.396 11.601,23.292 12.143,23.098 C12.372,22.307 12.81,21.682 13.455,21.244 C8.851,20.806 6.664,19.182 6.664,14.828 C6.664,13.182 7.164,11.807 8.185,10.703 C7.997,10.119 7.893,9.535 7.893,8.953 C7.893,8.141 8.081,7.391 8.455,6.682 C10.039,6.682 11.08,7.203 12.664,8.355 C13.726,8.105 14.893,7.98 16.185,7.98 C17.289,7.98 18.352,8.084 19.373,8.307 C20.956,7.203 21.977,6.682 23.54,6.682 C23.915,7.391 24.102,8.141 24.102,8.953 C24.102,9.557 23.998,10.119 23.81,10.682 C24.831,11.828 25.331,13.203 25.331,14.828 C25.331,19.182 23.143,20.849 18.56,21.266 C19.518,21.912 19.998,22.828 19.998,23.995 L19.998,28.704 C25.52,26.985 29.332,21.816 29.332,16 Z M29.854,7.959 C31.292,10.418 32,13.105 32,16 C32,21.812 28.938,27 24.042,29.854 C21.583,31.292 18.896,32 16,32 C10.188,32 5,28.939 2.146,24.021 C0.708,21.583 0,18.896 0,16 C0,10.189 3.062,5 7.979,2.146 C10.417,0.708 13.104,0 16,0 C21.812,0 26.999,3.066 29.854,7.959 Z" id="Shape"></path>
                </g>
            </g>
        </g>
    </g>
</svg>