<?xml version="1.0" encoding="UTF-8" standalone="no"?>
<svg width="16px" height="16px" viewBox="0 0 16 16" version="1.1" xmlns="http://www.w3.org/2000/svg" xmlns:xlink="http://www.w3.org/1999/xlink">
    <!-- Generator: Sketch 41.2 (35397) - http://www.bohemiancoding.com/sketch -->
    <title>Group</title>
    <desc>Created with Sketch.</desc>
    <defs></defs>
    <g id="02.00.00-AddressDetail" stroke="none" stroke-width="1" fill="none" fill-rule="evenodd">
        <g id="HD" transform="translate(-1000.000000, -142.000000)" fill="#00A0FF">
            <g id="Address-Detail" transform="translate(368.000000, 125.000000)">
                <g id="Group-2">
                    <g id="Source" transform="translate(632.000000, 14.000000)">
                        <g id="Group" transform="translate(0.000000, 3.000000)">
                            <path d="M14.3951515,1.6809697 C12.6506667,-0.0664242424 9.81381818,-0.0664242424 8.06836364,1.68193939 L6.46787879,3.28145455 C7.44727273,3.25381818 8.43006061,3.45842424 9.32654545,3.89769697 L9.80169697,3.4230303 C10.5861818,2.63757576 11.8671515,2.63757576 12.6530909,3.42254545 C13.4390303,4.20848485 13.4390303,5.49042424 12.6530909,6.27684848 L10.3597576,8.56969697 C9.57721212,9.35563636 8.29333333,9.35515152 7.50739394,8.56921212 C7.03030303,8.09454545 6.24969697,8.09454545 5.76969697,8.56969697 C5.29260606,9.04921212 5.29260606,9.83224242 5.76969697,10.3078788 C7.51709091,12.0552727 10.352,12.0552727 12.0993939,10.3078788 L14.3922424,8.0150303 C16.1362424,6.26424242 16.1362424,3.4230303 14.3951515,1.6809697 Z" id="Shape"></path>
                            <path d="M6.08630303,12.8387879 C5.30133333,13.622303 4.02181818,13.622303 3.23587879,12.8387879 C2.4489697,12.0528485 2.4489697,10.7704242 3.23587879,9.9849697 L5.52872727,7.69212121 C6.31466667,6.90618182 7.59612121,6.90618182 8.38109091,7.69212121 C8.86012121,8.17212121 9.64363636,8.17212121 10.1187879,7.69212121 C10.5978182,7.21551515 10.5978182,6.43393939 10.1187879,5.95393939 C8.37333333,4.2070303 5.54230303,4.20751515 3.79006061,5.95442424 L1.49721212,8.24727273 C-0.250666667,9.99418182 -0.250666667,12.8290909 1.49721212,14.5764848 C3.24266667,16.3214545 6.07369697,16.3214545 7.8249697,14.5764848 L9.42448485,12.9745455 C8.44509091,13.0046061 7.46230303,12.8 6.56387879,12.358303 L6.08630303,12.8387879 Z" id="Shape"></path>
                        </g>
                    </g>
                </g>
            </g>
        </g>
    </g>
</svg>