<?xml version="1.0" encoding="UTF-8"?>
<svg width="43px" height="50px" viewBox="0 0 43 50" version="1.1" xmlns="http://www.w3.org/2000/svg" xmlns:xlink="http://www.w3.org/1999/xlink">
    <!-- Generator: Sketch 44.1 (41455) - http://www.bohemiancoding.com/sketch -->
    <title>bitbucket</title>
    <desc>Created with Sketch.</desc>
    <defs></defs>
    <g id="Page-1" stroke="none" stroke-width="1" fill="none" fill-rule="evenodd">
        <g id="bitbucket" fill-rule="nonzero" fill="#172B4D">
            <path d="M21.4052448,0.336713287 L21.4052448,0.337412587 L21.4052448,0.336713287 C9.63076923,0.336713287 0.0164335664,3.5020979 0.0164335664,7.43251748 C0.0164335664,8.46783217 2.58391608,23.3118881 3.60244755,29.1986014 C4.05909091,31.8388112 10.8814685,35.7094406 21.3996503,35.7094406 L21.4104895,35.677972 L21.4104895,35.7094406 C31.9283217,35.7094406 38.7506993,31.8388112 39.2073427,29.1986014 C40.2258741,23.3118881 42.7933566,8.46783217 42.7933566,7.43251748 C42.7937063,3.50244755 33.1797203,0.336713287 21.4052448,0.336713287 Z M21.4052448,30.9405594 C17.6503497,30.9405594 14.6062937,27.8961538 14.6062937,24.1416084 C14.6062937,20.3863636 17.6503497,17.3426573 21.4052448,17.3426573 C25.1601399,17.3426573 28.2041958,20.3863636 28.2041958,24.1416084 C28.2041958,27.8961538 25.1601399,30.9405594 21.4052448,30.9405594 Z M21.4013986,9.62587413 C13.8363636,9.61363636 7.70594406,8.2993007 7.70839161,6.68951049 C7.71083916,5.07972028 13.8461538,3.78496503 21.4111888,3.7972028 C28.9762238,3.80909091 35.1066434,5.12342657 35.1041958,6.73356643 C35.1013986,8.34370629 28.9664336,9.63776224 21.4013986,9.62587413 Z" id="Shape"></path>
            <path d="M36.777972,35.0986014 C36.4527972,35.0986014 36.1923077,35.3286713 36.1923077,35.3286713 C36.1923077,35.3286713 30.9251748,39.4996503 21.4055944,39.5 C11.8856643,39.4996503 6.61888112,35.3286713 6.61888112,35.3286713 C6.61888112,35.3286713 6.35804196,35.0986014 6.03321678,35.0986014 C5.64475524,35.0986014 5.27657343,35.3594406 5.27657343,35.9353147 C5.27657343,35.9961538 5.28251748,36.056993 5.29370629,36.1164336 C6.11118881,40.491958 6.70839161,43.5965035 6.81328671,44.0688811 C7.52692308,47.2874126 13.8230769,49.7160839 21.4052448,49.7164336 L21.4052448,49.7164336 L21.4055944,49.7164336 L21.4059441,49.7164336 L21.4059441,49.7164336 C28.9884615,49.7160839 35.2842657,47.2874126 35.9979021,44.0688811 C36.1027972,43.5961538 36.7,40.491958 37.5174825,36.1164336 C37.5286713,36.056993 37.5346154,35.9961538 37.5346154,35.9353147 C37.5346154,35.3594406 37.1660839,35.0986014 36.777972,35.0986014 Z" id="Shape"></path>
            <circle id="Oval" cx="21.3986014" cy="24.1395105" r="3.40734266"></circle>
        </g>
    </g>
</svg>