<?xml version="1.0" encoding="UTF-8"?>
<svg width="50px" height="50px" viewBox="0 0 50 50" version="1.1" xmlns="http://www.w3.org/2000/svg" xmlns:xlink="http://www.w3.org/1999/xlink">
    <!-- Generator: Sketch 42 (36781) - http://www.bohemiancoding.com/sketch -->
    <title>logos/digitalocean</title>
    <desc>Created with Sketch.</desc>
    <defs></defs>
    <g id="Symbols" stroke="none" stroke-width="1" fill="none" fill-rule="evenodd">
        <g id="logos/digitalocean" fill="#0080FF">
            <g id="XMLID_48_" fill-rule="nonzero">
                <path d="M25,49.5786517 L25,39.9719101 C35.1685393,39.9719101 43.0617978,29.8876404 39.1573034,19.1853933 C37.7247191,15.252809 34.5505618,12.0786517 30.5898876,10.6460674 C19.8876404,6.76966292 9.80337079,14.6348315 9.80337079,24.8033708 L9.80337079,24.8033708 L0.224719101,24.8033708 C0.224719101,8.59550562 15.8988764,-4.04494382 32.8932584,1.26404494 C40.3089888,3.59550562 46.2359551,9.49438202 48.5393258,16.9101124 C53.8483146,33.9044944 41.2078652,49.5786517 25,49.5786517 Z" id="XMLID_49_"></path>
            </g>
            <polygon id="XMLID_47_" points="25.0280899 40.0280899 15.4494382 40.0280899 15.4494382 30.4494382 15.4494382 30.4494382 25.0280899 30.4494382 25.0280899 30.4494382"></polygon>
            <polygon id="XMLID_46_" points="15.4494382 47.3595506 8.11797753 47.3595506 8.11797753 47.3595506 8.11797753 40.0280899 15.4494382 40.0280899"></polygon>
            <path d="M8.11797753,40.0280899 L1.96629213,40.0280899 L1.96629213,40.0280899 L1.96629213,33.8764045 L1.96629213,33.8764045 L8.11797753,33.8764045 L8.11797753,33.8764045 L8.11797753,40.0280899 Z" id="XMLID_45_"></path>
        </g>
    </g>
</svg>