<?xml version="1.0" encoding="UTF-8"?>
<svg width="50px" height="50px" viewBox="0 0 50 50" version="1.1" xmlns="http://www.w3.org/2000/svg" xmlns:xlink="http://www.w3.org/1999/xlink">
    <!-- Generator: Sketch 42 (36781) - http://www.bohemiancoding.com/sketch -->
    <title>service-icon/github</title>
    <desc>Created with Sketch.</desc>
    <defs></defs>
    <g id="Symbols" stroke="none" stroke-width="1" fill="none" fill-rule="evenodd">
        <g id="service-icon/github" fill="#151513">
            <path d="M25.4979281,3 C13.0748949,3 3,13.0735136 3,25.5006906 C3,35.4416035 9.44633046,43.8741828 18.3872126,46.8494122 C19.5129378,47.0566009 19.9231714,46.3618282 19.9231714,45.7651248 C19.9231714,45.2319592 19.9038338,43.8161699 19.8927837,41.9390405 C13.6343043,43.2981982 12.3138218,38.9223733 12.3138218,38.9223733 C11.2903097,36.322846 9.81512631,35.6308358 9.81512631,35.6308358 C7.77224593,34.2357654 9.96982719,34.2633905 9.96982719,34.2633905 C12.2281838,34.4222352 13.4160656,36.5825225 13.4160656,36.5825225 C15.4230332,40.0204733 18.6828018,39.0273489 19.9646091,38.4513644 C20.1690353,36.9982811 20.7505448,36.006538 21.3928297,35.444366 C16.39682,34.876669 11.1438964,32.9456705 11.1438964,24.3238589 C11.1438964,21.8679824 12.0209951,19.8582522 13.4602658,18.2863808 C13.2282145,17.7173026 12.4560913,15.4285583 13.6812671,12.3317781 C13.6812671,12.3317781 15.5694466,11.7267872 19.8679211,14.6384788 C21.662175,14.1384634 23.5876485,13.889837 25.5006906,13.8801682 C27.4123515,13.889837 29.3364437,14.1384634 31.1334602,14.6384788 C35.4291722,11.7267872 37.3145892,12.3317781 37.3145892,12.3317781 C38.5425274,15.4285583 37.7704042,17.7173026 37.5397342,18.2863808 C38.9817674,19.8582522 39.8519599,21.8679824 39.8519599,24.3238589 C39.8519599,32.9677706 34.5907486,34.8697627 29.5795451,35.4264097 C30.3861997,36.1211824 31.105835,37.4941527 31.105835,39.5936646 C31.105835,42.600663 31.0782099,45.0275331 31.0782099,45.7651248 C31.0782099,46.3673532 31.4842997,47.0676509 32.6252187,46.8480309 C41.5591946,43.8658952 48,35.438841 48,25.5006906 C48,13.0735136 37.9251051,3 25.4979281,3" id="Fill-3"></path>
        </g>
    </g>
</svg>