<?xml version="1.0" encoding="UTF-8" standalone="no"?>
<svg width="50px" height="50px" viewBox="0 0 50 50" version="1.1" xmlns="http://www.w3.org/2000/svg" xmlns:xlink="http://www.w3.org/1999/xlink">
    <!-- Generator: Sketch 41.2 (35397) - http://www.bohemiancoding.com/sketch -->
    <title>Shape</title>
    <desc>Created with Sketch.</desc>
    <defs></defs>
    <g id="Symbols" stroke="none" stroke-width="1" fill="none" fill-rule="evenodd">
        <g id="service-icon-/-google" fill="#DD4B39">
            <g id="google-plus">
                <path d="M0,0 L0,49.9703947 L49.9703947,49.9703947 L49.9703947,0 L0,0 Z M29.1304825,27.0873904 C28.2759868,32.7007675 24.0908991,35.9188596 18.6725877,35.9188596 C12.5836623,35.9188596 7.64714912,30.9823465 7.64714912,24.8934211 C7.64714912,18.8060307 12.5836623,13.8695175 18.6725877,13.8695175 C21.6179825,13.8695175 24.1987939,14.920614 26.0773026,16.7451754 L22.9131579,19.9093202 C21.841557,18.8297149 20.3751096,18.2542763 18.6725877,18.2542763 C15.0883772,18.2542763 12.1825658,21.310636 12.1825658,24.8933114 C12.1825658,28.4791667 15.0883772,31.4468202 18.6725877,31.4468202 C21.6766447,31.4468202 23.9515351,29.9947368 24.6077851,27.0873904 L18.6725877,27.0873904 L18.6725877,22.6597588 L29.1036184,22.6597588 C29.2288377,23.373136 29.2922149,24.1197368 29.2922149,24.8933114 C29.2921053,25.660636 29.2366228,26.3914474 29.1304825,27.0873904 Z M42.3705044,25.7145833 L38.5072368,25.7145833 L38.5072368,29.5762061 L35.7631579,29.5762061 L35.7631579,25.7145833 L31.8998904,25.7145833 L31.8998904,22.9688596 L35.7631579,22.9688596 L35.7631579,19.1055921 L38.5072368,19.1055921 L38.5072368,22.9688596 L42.3705044,22.9688596 L42.3705044,25.7145833 L42.3705044,25.7145833 Z" id="Shape"></path>
            </g>
        </g>
    </g>
</svg>