<?xml version="1.0" encoding="UTF-8"?>
<svg width="50px" height="50px" viewBox="0 0 50 50" version="1.1" xmlns="http://www.w3.org/2000/svg" xmlns:xlink="http://www.w3.org/1999/xlink">
    <!-- Generator: Sketch 42 (36781) - http://www.bohemiancoding.com/sketch -->
    <title>service-icon/linkedin</title>
    <desc>Created with Sketch.</desc>
    <defs></defs>
    <g id="Symbols" stroke="none" stroke-width="1" fill="none" fill-rule="evenodd">
        <g id="service-icon/linkedin" fill-rule="nonzero" fill="#0077B7">
            <g id="linkedin">
                <path d="M45.4770942,0 L4.52290576,0 C2.025,0 0,2.025 0,4.52290576 L0,45.4769634 C0,47.975 2.025,50 4.52290576,50 L45.4769634,50 C47.975,50 50,47.975 50,45.4769634 L50,4.52290576 C50,2.025 47.975,0 45.4770942,0 Z M15.4721204,43.1732984 C15.4721204,43.9002618 14.8828534,44.4895288 14.1558901,44.4895288 L8.55301047,44.4895288 C7.82604712,44.4895288 7.2367801,43.9002618 7.2367801,43.1732984 L7.2367801,19.6862565 C7.2367801,18.9592932 7.82604712,18.3700262 8.55301047,18.3700262 L14.1558901,18.3700262 C14.8828534,18.3700262 15.4721204,18.9592932 15.4721204,19.6862565 L15.4721204,43.1732984 Z M11.3544503,16.1560209 C8.41479058,16.1560209 6.03167539,13.7729058 6.03167539,10.8332461 C6.03167539,7.89358639 8.41479058,5.5104712 11.3544503,5.5104712 C14.2941099,5.5104712 16.6772251,7.89358639 16.6772251,10.8332461 C16.6772251,13.7729058 14.2942408,16.1560209 11.3544503,16.1560209 Z M44.7526178,43.2793194 C44.7526178,43.947644 44.210733,44.4895288 43.5424084,44.4895288 L37.5301047,44.4895288 C36.8617801,44.4895288 36.3198953,43.947644 36.3198953,43.2793194 L36.3198953,32.2625654 C36.3198953,30.6191099 36.8019634,25.0608639 32.025,25.0608639 C28.3196335,25.0608639 27.5680628,28.8653141 27.4171466,30.572644 L27.4171466,43.2793194 C27.4171466,43.947644 26.8753927,44.4895288 26.2069372,44.4895288 L20.3920157,44.4895288 C19.7236911,44.4895288 19.1818063,43.947644 19.1818063,43.2793194 L19.1818063,19.5802356 C19.1818063,18.911911 19.7236911,18.3700262 20.3920157,18.3700262 L26.2069372,18.3700262 C26.8752618,18.3700262 27.4171466,18.911911 27.4171466,19.5802356 L27.4171466,21.6293194 C28.7910995,19.5674084 30.8329843,17.9759162 35.1804974,17.9759162 C44.8077225,17.9759162 44.7526178,26.9701571 44.7526178,31.9120419 L44.7526178,43.2793194 L44.7526178,43.2793194 Z" id="Shape"></path>
            </g>
        </g>
    </g>
</svg>