<?xml version="1.0" encoding="UTF-8"?>
<svg width="50px" height="50px" viewBox="0 0 50 50" version="1.1" xmlns="http://www.w3.org/2000/svg" xmlns:xlink="http://www.w3.org/1999/xlink">
    <!-- Generator: Sketch 42 (36781) - http://www.bohemiancoding.com/sketch -->
    <title>logos/newrelic</title>
    <desc>Created with Sketch.</desc>
    <defs></defs>
    <g id="Symbols" stroke="none" stroke-width="1" fill="none" fill-rule="evenodd">
        <g id="logos/newrelic" fill-rule="nonzero">
            <g id="outlines" transform="translate(3.000000, 7.000000)">
                <path d="M44.6060029,13.3636164 C42.5016105,3.68894583 30.8997804,-2.0022694 18.691142,0.6522694 C6.48250366,3.3068082 -1.7090776,13.3023426 0.39465593,22.9763543 C2.49838946,32.650366 14.0989019,38.3422401 26.308858,35.6877013 C38.5188141,33.0331625 46.7090776,23.0376281 44.6060029,13.3636164 Z M21.6823572,30.2468521 C14.8691069,30.2468521 9.34853587,24.7243045 9.34853587,17.911713 C9.34853587,11.0991215 14.8697657,5.57855051 21.6823572,5.57855051 C28.4949488,5.57855051 34.0161786,11.1004392 34.0161786,17.911713 C34.0161786,24.7229868 28.493631,30.2468521 21.6823572,30.2468521 Z" id="Shape" fill="#0097A0"></path>
                <path d="M24.7565886,2.62554905 C16.0385798,2.62554905 8.96969253,9.69377745 8.96969253,18.4117862 C8.96969253,27.129795 16.0385798,34.1993411 24.7565886,34.1993411 C33.4745974,34.1993411 40.5441435,27.1304539 40.5441435,18.4117862 C40.5441435,9.69311859 33.4745974,2.62554905 24.7565886,2.62554905 Z M21.6823572,30.0485359 C14.9784773,30.0485359 9.54685212,24.6149341 9.54685212,17.911713 C9.54685212,11.2084919 14.9784773,5.77752562 21.6823572,5.77752562 C28.3862372,5.77752562 33.8139092,11.2098097 33.8139092,17.911713 C33.8139092,24.6136164 28.3836018,30.0485359 21.6823572,30.0485359 Z" id="Shape" fill="#5BC6CC"></path>
            </g>
        </g>
    </g>
</svg>