<?xml version="1.0" encoding="UTF-8"?>
<svg width="50px" height="50px" viewBox="0 0 50 50" version="1.1" xmlns="http://www.w3.org/2000/svg" xmlns:xlink="http://www.w3.org/1999/xlink">
    <!-- Generator: Sketch 42 (36781) - http://www.bohemiancoding.com/sketch -->
    <title>service-icon/snapchat</title>
    <desc>Created with Sketch.</desc>
    <defs>
        <polygon id="path-1" points="0 50.1087963 0 0.115393519 50 0.115393519 50 50.1087963"></polygon>
    </defs>
    <g id="Symbols" stroke="none" stroke-width="1" fill="none" fill-rule="evenodd">
        <g id="service-icon/snapchat">
            <g id="snap-ghost-yellow">
                <g id="Group-3">
                    <mask id="mask-2" fill="white">
                        <use xlink:href="#path-1"></use>
                    </mask>
                    <g id="Clip-2"></g>
                    <path d="M42.0331019,0.115393519 C46.4325231,0.115393519 50,3.68240741 50,8.08321759 L50,42.1487269 C50,46.5483796 46.4325231,50.1157407 42.0331019,50.1157407 L7.96747685,50.1157407 C3.56747685,50.1157407 0,46.5483796 0,42.1487269 L0,8.08321759 C0,3.68240741 3.56747685,0.115393519 7.96747685,0.115393519 L42.0331019,0.115393519" id="Fill-1" fill="#F5EA30" mask="url(#mask-2)"></path>
                </g>
                <path d="M25.1835648,42.305787 C25.0892361,42.305787 24.996412,42.303125 24.9037037,42.2987269 L24.9034722,42.2987269 C24.8444444,42.3032407 24.7825231,42.305787 24.7207176,42.305787 C22.5508102,42.305787 21.1579861,41.3212963 19.8112269,40.3690972 C18.88125,39.7119213 18.0037037,39.0916667 16.9696759,38.9194444 C16.465162,38.8358796 15.962963,38.7935185 15.4775463,38.7935185 C14.6032407,38.7935185 13.9135417,38.9284722 13.4099537,39.0269676 C13.1039352,39.0868056 12.8399306,39.1383102 12.6393519,39.1383102 C12.4297454,39.1383102 12.2025463,39.0929398 12.1039352,38.7556713 C12.0180556,38.4634259 11.9560185,38.1804398 11.896412,37.906713 C11.7425926,37.2020833 11.6333333,36.7688657 11.3380787,36.7234954 C7.89641204,36.1918981 6.91134259,35.4670139 6.69178241,34.952662 C6.66064815,34.8791667 6.64293981,34.8054398 6.63877315,34.7325231 C6.6275463,34.5349537 6.76759259,34.3604167 6.96284722,34.328588 C12.2534722,33.4572917 14.6259259,28.05 14.7244213,27.8203704 C14.7270833,27.8140046 14.7299769,27.8078704 14.7328704,27.8015046 C15.056713,27.1453704 15.1201389,26.5756944 14.9219907,26.1087963 C14.558912,25.253125 13.3747685,24.8770833 12.5909722,24.6284722 C12.3991898,24.5678241 12.2173611,24.5104167 12.0739583,24.4537037 C10.509838,23.8354167 10.3797454,23.2006944 10.441088,22.8771991 C10.5459491,22.3260417 11.2826389,21.9418981 11.8783565,21.9418981 C12.0416667,21.9418981 12.1855324,21.9708333 12.3064815,22.0273148 C13.0100694,22.3569444 13.644213,22.5239583 14.1913194,22.5239583 C14.947338,22.5239583 15.2773148,22.20625 15.3177083,22.1645833 C15.2984954,21.8064815 15.2746528,21.4325231 15.2502315,21.0466435 C15.0927083,18.5452546 14.8974537,15.4372685 15.6887731,13.6631944 C18.0605324,8.34525463 23.0900463,7.93217593 24.575,7.93217593 C24.6130787,7.93217593 25.2260417,7.9255787 25.2260417,7.9255787 L25.3140046,7.92523148 C26.8024306,7.92523148 31.8429398,8.33912037 34.2159722,13.6599537 C35.0075231,15.4349537 34.8116898,18.5457176 34.6539352,21.0451389 L34.647338,21.1538194 C34.625463,21.5018519 34.6043981,21.840162 34.5866898,22.1640046 C34.624537,22.2025463 34.9280093,22.4947917 35.6134259,22.5210648 L35.6142361,22.5210648 C36.1350694,22.5011574 36.7336806,22.3350694 37.390625,22.0273148 C37.5832176,21.9373843 37.7969907,21.9184028 37.9425926,21.9184028 C38.1649306,21.9184028 38.3902778,21.9614583 38.5774306,22.0395833 L38.5887731,22.044213 C39.1201389,22.2325231 39.468287,22.6049769 39.4756944,22.9940972 C39.4826389,23.3606481 39.2028935,23.9115741 37.8304398,24.4537037 C37.6881944,24.5096065 37.5063657,24.5673611 37.3138889,24.6284722 C36.5291667,24.8774306 35.3454861,25.253125 34.9826389,26.1086806 C34.7842593,26.5753472 34.8478009,27.1445602 35.1715278,27.8011574 C35.1744213,27.8075231 35.177662,27.8136574 35.1800926,27.8203704 C35.278588,28.0497685 37.6489583,33.4555556 42.9420139,34.3277778 C43.1373843,34.3600694 43.2769676,34.534375 43.2662037,34.7320602 C43.2618056,34.80625 43.24375,34.8809028 43.2121528,34.9534722 C42.99375,35.4641204 42.0094907,36.1880787 38.5666667,36.7200231 C38.2854167,36.7631944 38.1763889,37.1297454 38.0085648,37.8982639 C37.9475694,38.1780093 37.8857639,38.452662 37.8006944,38.7416667 C37.7273148,38.9923611 37.5710648,39.1097222 37.3082176,39.1097222 L37.2653935,39.1097222 C37.0831019,39.1097222 36.8237269,39.0770833 36.4950231,39.0125 C35.9121528,38.8984954 35.2586806,38.7935185 34.4271991,38.7935185 C33.9416667,38.7935185 33.4392361,38.8358796 32.934375,38.9194444 C31.9015046,39.0916667 31.024537,39.7107639 30.0962963,40.3668981 C28.7467593,41.3212963 27.3541667,42.305787 25.1835648,42.305787" id="Fill-4" fill="#FFFFFF"></path>
                <path d="M25.3140046,7.53761574 L25.3125,7.53761574 C25.2802083,7.53761574 25.2498843,7.53761574 25.2210648,7.53819444 C25.2210648,7.53819444 24.6215278,7.54421296 24.5738426,7.54421296 C23.0309028,7.54421296 17.8015046,7.97407407 15.334375,13.5054398 C14.5046296,15.3663194 14.703588,18.5268519 14.8630787,21.0665509 C14.8818287,21.366088 14.9018519,21.6769676 14.9189815,21.9773148 C14.7913194,22.0480324 14.5582176,22.1359954 14.1913194,22.1359954 C13.7016204,22.1359954 13.1228009,21.9813657 12.4711806,21.6759259 C12.2981481,21.5949074 12.0987269,21.5543981 11.8783565,21.5543981 C11.115162,21.5543981 10.2023148,22.0564815 10.0601852,22.8048611 C9.95775463,23.34375 10.1988426,24.1298611 11.93125,24.8141204 C12.0876157,24.8759259 12.2755787,24.9354167 12.4740741,24.9981481 C13.1896991,25.225463 14.2715278,25.56875 14.565162,26.2603009 C14.7171296,26.6185185 14.6564815,27.0796296 14.3851852,27.6303241 C14.3792824,27.6428241 14.3732639,27.6550926 14.3679398,27.6679398 C14.2726852,27.8894676 11.9831019,33.108912 6.89988426,33.9457176 C6.50891204,34.0101852 6.22962963,34.358912 6.25127315,34.7543981 C6.25798611,34.8719907 6.28587963,34.9891204 6.33402778,35.1027778 C6.71550926,35.9946759 8.32511574,36.6482639 11.2553241,37.1030093 C11.3532407,37.2355324 11.4549769,37.7033565 11.5173611,37.9885417 C11.578588,38.2697917 11.6417824,38.559838 11.7318287,38.8658565 C11.8201389,39.1666667 12.049537,39.5262731 12.6393519,39.5262731 C12.8775463,39.5262731 13.1586806,39.4712963 13.4840278,39.4074074 C13.9722222,39.312037 14.6407407,39.1814815 15.4775463,39.1814815 C15.9416667,39.1814815 16.4226852,39.2217593 16.9070602,39.3020833 C17.8525463,39.4596065 18.6560185,40.0275463 19.5862269,40.6850694 C20.9185185,41.6270833 22.4273148,42.6935185 24.7207176,42.6935185 C24.7836806,42.6935185 24.8471065,42.6916667 24.9097222,42.687037 C24.9841435,42.6902778 25.080787,42.6935185 25.1835648,42.6935185 C27.477662,42.6935185 28.9862269,41.6269676 30.3175926,40.6854167 C31.2498843,40.0269676 32.0527778,39.4592593 32.9982639,39.3020833 C33.4818287,39.2217593 33.962963,39.1814815 34.4271991,39.1814815 C35.2255787,39.1814815 35.8572917,39.2829861 36.4207176,39.3930556 C36.7737269,39.4621528 37.0578704,39.497338 37.2653935,39.497338 L37.2871528,39.4976852 L37.3082176,39.4976852 C37.7438657,39.4976852 38.0511574,39.2674769 38.1731481,38.8497685 C38.2614583,38.55 38.3247685,38.2674769 38.3873843,37.9813657 C38.4494213,37.6971065 38.5509259,37.23125 38.6484954,37.0996528 C41.5795139,36.6445602 43.1886574,35.9920139 43.5693287,35.1039352 C43.618287,34.9902778 43.646412,34.8722222 43.653125,34.753588 C43.6751157,34.3578704 43.3956019,34.0096065 43.0049769,33.9453704 C37.9193287,33.1071759 35.631713,27.8888889 35.5366898,27.6675926 C35.53125,27.6548611 35.525463,27.6421296 35.519213,27.6298611 C35.2476852,27.0792824 35.1876157,26.6185185 35.3394676,26.2603009 C35.6328704,25.56875 36.7142361,25.225463 37.4299769,24.9986111 C37.6302083,24.9350694 37.8184028,24.8751157 37.9731481,24.8141204 C39.2409722,24.3134259 39.8769676,23.6984954 39.8635417,22.9864583 C39.8525463,22.4271991 39.4170139,21.9282407 38.7246528,21.6809028 L38.7225694,21.6802083 C38.4896991,21.5835648 38.2133102,21.530787 37.9425926,21.530787 C37.7575231,21.530787 37.4829861,21.5560185 37.2265046,21.6759259 C36.6234954,21.9585648 36.0814815,22.1121528 35.6142361,22.1331019 C35.3043981,22.1186343 35.1016204,22.0405093 34.9859954,21.9768519 C35.0006944,21.7190972 35.0171296,21.4538194 35.0346065,21.1766204 L35.041088,21.0688657 C35.2015046,18.5274306 35.4005787,15.3641204 34.5700231,13.5019676 C32.1018519,7.96805556 26.8613426,7.53761574 25.3140046,7.53761574 Z M25.3140046,8.3130787 C26.7229167,8.31319444 31.5752315,8.6912037 33.862037,13.8179398 C34.6146991,15.5056713 34.4222222,18.5637731 34.2672454,21.0207176 C34.2427083,21.4103009 34.2188657,21.7878472 34.199537,22.1490741 L34.191088,22.3039352 L34.2949074,22.4193287 C34.3363426,22.4659722 34.7280093,22.8748843 35.5982639,22.9086806 L35.6128472,22.9090278 L35.6270833,22.9086806 C36.2024306,22.887037 36.8509259,22.7085648 37.5553241,22.3784722 C37.6586806,22.3298611 37.7966435,22.30625 37.9425926,22.30625 C38.1092593,22.30625 38.2858796,22.3375 38.431713,22.3989583 L38.453588,22.4077546 C38.8225694,22.537037 39.0836806,22.78125 39.0880787,23.0016204 C39.0902778,23.1269676 38.9965278,23.5760417 37.687963,24.0928241 C37.5601852,24.1435185 37.3915509,24.196875 37.1965278,24.2584491 C36.3450231,24.5291667 35.0585648,24.9369213 34.625463,25.956713 C34.3814815,26.5322917 34.4479167,27.2104167 34.8236111,27.9728009 C34.9783565,28.3334491 37.4084491,33.8092593 42.8788194,34.7105324 C42.8773148,34.7358796 42.8711806,34.7646991 42.8563657,34.7981481 C42.7634259,35.0165509 42.1740741,35.7704861 38.5075231,36.3364583 C37.9335648,36.425 37.7928241,37.0677083 37.6296296,37.8157407 C37.571412,38.0831019 37.5109954,38.3528935 37.4287037,38.6324074 C37.4038194,38.7168981 37.3990741,38.721875 37.3082176,38.721875 L37.2653935,38.721875 C37.1027778,38.721875 36.8555556,38.6880787 36.5693287,38.6320602 C36.0496528,38.5304398 35.337037,38.4059028 34.4271991,38.4059028 C33.9194444,38.4059028 33.3958333,38.45 32.8711806,38.537037 C31.7491898,38.7238426 30.8363426,39.3694444 29.8695602,40.0523148 C28.571875,40.9700231 27.2305556,41.9181713 25.1835648,41.9181713 C25.0947917,41.9181713 25.0071759,41.9152778 24.9196759,41.9111111 L24.8966435,41.9099537 L24.8733796,41.912037 C24.8231481,41.9162037 24.7725694,41.9181713 24.7207176,41.9181713 C22.6741898,41.9181713 21.3322917,40.9700231 20.034838,40.052662 C19.0684028,39.3694444 18.1553241,38.7238426 17.0335648,38.537037 C16.5086806,38.45 15.9854167,38.4059028 15.4775463,38.4059028 C14.5679398,38.4059028 13.8553241,38.5444444 13.3353009,38.6461806 C13.0491898,38.7024306 12.8016204,38.750463 12.6393519,38.750463 C12.506713,38.750463 12.5039352,38.7428241 12.4759259,38.6469907 C12.39375,38.3672454 12.3334491,38.0902778 12.2751157,37.8231481 C12.1118056,37.0752315 11.9704861,36.428588 11.3972222,36.340162 C7.73032407,35.7739583 7.14131944,35.0181713 7.04826389,34.8002315 C7.03344907,34.7664352 7.02731481,34.7369213 7.02604167,34.7112269 C12.4959491,33.8099537 14.9260417,28.334838 15.080787,27.9731481 C15.4564815,27.2104167 15.5232639,26.5327546 15.2790509,25.9575231 C14.8462963,24.9373843 13.5597222,24.5291667 12.7081019,24.2584491 C12.512963,24.1971065 12.3444444,24.1435185 12.2165509,24.0928241 C11.1109954,23.65625 10.7712963,23.2164352 10.8222222,22.9497685 C10.880787,22.6423611 11.4135417,22.3298611 11.8783565,22.3298611 C11.9829861,22.3298611 12.0743056,22.3465278 12.1421296,22.3784722 C12.897338,22.7318287 13.5871528,22.9116898 14.1913194,22.9116898 C15.1422454,22.9116898 15.5655093,22.469213 15.6104167,22.4190972 L15.7135417,22.3039352 L15.7050926,22.149537 C15.6857639,21.7890046 15.662037,21.4115741 15.6373843,21.0222222 C15.4826389,18.5652778 15.290162,15.5092593 16.0429398,13.8211806 C18.3208333,8.71331019 23.1494213,8.31979167 24.575,8.31979167 C24.6101852,8.31979167 25.2297454,8.31365741 25.2297454,8.31365741 C25.2563657,8.31319444 25.2842593,8.3130787 25.3140046,8.3130787 L25.3140046,8.3130787 Z" id="Fill-5" fill="#0B0C0A"></path>
            </g>
        </g>
    </g>
</svg>