<?xml version="1.0" encoding="UTF-8"?>
<svg width="50px" height="50px" viewBox="0 0 50 50" version="1.1" xmlns="http://www.w3.org/2000/svg" xmlns:xlink="http://www.w3.org/1999/xlink">
    <!-- Generator: Sketch 42 (36781) - http://www.bohemiancoding.com/sketch -->
    <title>logos/stripe</title>
    <desc>Created with Sketch.</desc>
    <defs></defs>
    <g id="Symbols" stroke="none" stroke-width="1" fill="none" fill-rule="evenodd">
        <g id="logos/stripe" fill="#6772E5">
            <path d="M21.9010989,14.8901099 C21.9010989,12.7472527 23.6593407,11.9230769 26.5714286,11.9230769 C30.7472527,11.9230769 36.021978,13.1868132 40.1978022,15.4395604 L40.1978022,2.52747253 C35.6373626,0.714285714 31.1318681,0 26.5714286,0 C15.4175824,-7.80816193e-15 8,5.82417582 8,15.5494505 C8,30.7142857 28.8791209,28.2967033 28.8791209,34.8351648 C28.8791209,37.3626374 26.6813187,38.1868132 23.6043956,38.1868132 C19.043956,38.1868132 13.2197802,36.3186813 8.6043956,33.7912088 L8.6043956,46.8681319 C13.7142857,49.0659341 18.8791209,50 23.6043956,50 C35.032967,50 42.8901099,44.3406593 42.8901099,34.5054945 C42.8351648,18.1318681 21.9010989,21.043956 21.9010989,14.8901099 Z" id="Shape"></path>
        </g>
    </g>
</svg>