<?xml version="1.0" encoding="UTF-8"?>
<svg width="50px" height="50px" viewBox="0 0 50 50" version="1.1" xmlns="http://www.w3.org/2000/svg" xmlns:xlink="http://www.w3.org/1999/xlink">
    <!-- Generator: Sketch 42 (36781) - http://www.bohemiancoding.com/sketch -->
    <title>logos/twitter</title>
    <desc>Created with Sketch.</desc>
    <defs></defs>
    <g id="Symbols" stroke="none" stroke-width="1" fill="none" fill-rule="evenodd">
        <g id="logos/twitter" fill-rule="nonzero">
            <g id="twitter">
                <g id="Capa_1">
                    <g id="Group">
                        <rect id="Rectangle-path" fill="#50ABF1" x="0" y="0" width="49.9705044" height="49.9705044"></rect>
                        <path d="M6.62028509,37.041886 C9.94594298,39.1510965 13.8908991,40.3717105 18.1197368,40.3717105 C30.0001096,40.3717105 39.6307018,30.7400219 39.6307018,18.8607456 C39.6307018,18.5641447 39.6244518,18.2697368 39.6130482,17.9762061 C40.0427632,17.6380482 42.7004386,15.5078947 43.351864,14.1384868 C43.351864,14.1384868 41.1936404,15.0354167 39.0813596,15.2467105 C39.077193,15.2467105 39.0720395,15.2476974 39.0678728,15.2476974 C39.0678728,15.2476974 39.0720395,15.245614 39.0792763,15.2404605 C39.2739035,15.1104167 41.9949561,13.258114 42.3633772,11.0510965 C42.3633772,11.0510965 40.8368421,11.8658991 38.6994518,12.5787281 C38.345614,12.6962719 37.9752193,12.8118421 37.5933114,12.9189693 C36.2155702,11.4485746 34.2572368,10.5308114 32.083443,10.5308114 C27.9138158,10.5308114 24.5350877,13.9085526 24.5350877,18.075 C24.5350877,18.6629386 24.6027412,19.2351974 24.7307018,19.7846491 C24.1480263,19.7607456 15.2748904,19.2632675 9.23848684,11.9531798 C9.23848684,11.9531798 5.6308114,16.8782895 11.3883772,21.9427632 C11.3883772,21.9427632 9.63815789,21.8730263 8.12817982,20.9708333 C8.12817982,20.9708333 7.57357456,26.9375 14.0938596,28.4630482 C14.0938596,28.4630482 12.8108553,28.9490132 10.7640351,28.6025219 C10.7640351,28.6025219 11.9086623,33.4235746 17.7016447,33.8741228 C17.7016447,33.8741228 13.1208333,38.0122807 6.61820175,37.0413377 L6.62028509,37.041886 Z" id="Shape" fill="#FFFFFF"></path>
                    </g>
                </g>
            </g>
        </g>
    </g>
</svg>