<?xml version="1.0" encoding="UTF-8"?>
<svg width="50px" height="50px" viewBox="0 0 50 50" version="1.1" xmlns="http://www.w3.org/2000/svg" xmlns:xlink="http://www.w3.org/1999/xlink">
    <!-- Generator: Sketch 42 (36781) - http://www.bohemiancoding.com/sketch -->
    <title>service-icon/yahoo</title>
    <desc>Created with Sketch.</desc>
    <defs></defs>
    <g id="Symbols" stroke="none" stroke-width="1" fill="none" fill-rule="evenodd">
        <g id="service-icon/yahoo" fill-rule="nonzero">
            <g id="yahoo">
                <g id="Group">
                    <path d="M24.9416096,0 C38.7172945,0 49.8833904,11.167637 49.8833904,24.9417808 C49.8833904,38.7174658 38.7172945,49.8833904 24.9416096,49.8833904 C11.1659247,49.8833904 0,38.7172945 0,24.9417808 C0,11.167637 11.1660959,0 24.9416096,0 Z" id="Shape" fill="#720E9E"></path>
                    <path d="M36.3618151,19.6883562 L36.3883562,19.6837329 L37.2145548,18.7640411 L37.1739726,18.7609589 L37.2613014,18.6238014 L25.6868151,18.6238014 L26.1327055,20.2075342 L29.2909247,20.2075342 L23.9751712,25.1256849 C22.8902397,23.5434932 20.347774,19.9066781 18.5738014,17.1785959 L21.8707192,17.1785959 L21.8707192,16.0561644 L21.9159247,15.7335616 L21.8707192,15.7273973 L21.8707192,15.5964041 L9.35462329,15.5964041 L9.35462329,17.1785959 L13.2688356,17.1785959 C14.7886986,18.4333904 21.3780822,26.4335616 21.6181507,27.1974315 C21.714726,27.9130137 21.8520548,32.1359589 21.5683219,32.4539384 C21.2268836,32.9450342 17.6618151,32.6799658 17.0335616,32.7267123 L17.0101027,34.2777397 C18.157363,34.3119863 21.5993151,34.2761986 22.7607877,34.2761986 C25.0491438,34.2761986 29.0570205,34.2169521 29.6212329,34.2621575 L29.6914384,32.7936644 L25.0851027,32.725 C24.9885274,32.0594178 24.8825342,27.8582192 24.9791096,27.4 C25.4140411,26.0703767 32.4818493,20.5674658 33.2083904,20.360274 L33.8928082,20.2059932 L36.0284247,20.2059932 C36.0282534,20.2058219 36.3618151,19.6883562 36.3618151,19.6883562 Z M34.634589,30.6642123 L36.6361301,30.8169521 L38.9696918,22.2589041 C38.5799658,22.244863 35.0398973,21.9284247 34.5799658,21.842637 L34.634589,30.6642123 Z M34.2885274,32.0361301 L34.2994863,34.1265411 L35.3126712,34.2107877 L36.4070205,34.2871575 L36.7280822,32.2419521 L35.5744863,32.1888699 C35.5746575,32.1888699 34.2885274,32.0361301 34.2885274,32.0361301 Z" id="Shape" fill="#FFFFFF"></path>
                </g>
            </g>
        </g>
    </g>
</svg>